<svg width="275" height="39" viewBox="0 0 275 39" fill="none" xmlns="http://www.w3.org/2000/svg">
<g clip-path="url(#clip0_478_155)">
<path d="M122.47 11.36C121.35 8.17 118.31 5.88 114.75 5.88H114.67C112.35 5.88 110.26 6.85 108.77 8.4C107.28 6.85 105.19 5.88 102.87 5.88H102.8C100.76 5.88 98.89 6.63 97.46 7.86V7.24C97.41 6.61 96.9 6.12 96.26 6.12H90.78C90.11 6.12 89.57 6.66 89.57 7.33V37.07C89.57 37.74 90.11 38.28 90.78 38.28H96.26C96.87 38.28 97.38 37.82 97.45 37.24V15.89C97.45 15.81 97.45 15.75 97.46 15.68C97.55 14.73 98.25 13.94 99.35 13.85H100.36C100.82 13.89 101.21 14.05 101.51 14.3C101.99 14.68 102.25 15.26 102.25 15.9L102.27 37.14C102.27 37.81 102.81 38.36 103.48 38.36H108.96C109.61 38.36 110.13 37.85 110.16 37.21V15.88C110.16 15.18 110.48 14.54 111.05 14.17C111.33 13.99 111.67 13.87 112.06 13.83H113.07C114.26 13.93 114.97 14.83 114.97 15.88L114.99 37.1C114.99 37.77 115.53 38.31 116.2 38.31H121.68C122.32 38.31 122.85 37.81 122.89 37.18V13.91C122.86 12.6 122.69 11.99 122.47 11.36ZM85.39 6.2H82.26V1.12C82.26 1.11 82.26 1.11 82.26 1.1C82.26 0.5 81.77 0 81.15 0C81.08 0 81.01 0.01 80.94 0.02C77.47 0.97 78.16 5.78 71.82 6.19H71.21C71.12 6.19 71.03 6.2 70.94 6.22C70.41 6.35 70 6.83 70 7.41V12.89C70 13.56 70.54 14.1 71.21 14.1H74.51L74.5 37.32C74.5 37.98 75.04 38.52 75.7 38.52H81.12C81.78 38.52 82.32 37.98 82.32 37.32V14.1H85.39C86.05 14.1 86.6 13.55 86.6 12.89V7.41C86.6 6.74 86.06 6.2 85.39 6.2Z" fill="#20336B"/>
<path d="M65.69 6.20141H60.21C59.55 6.20141 59 6.74141 59 7.41141V18.7414C58.99 19.4414 58.42 20.0014 57.72 20.0014H55.43C54.72 20.0014 54.14 19.4314 54.14 18.7214L54.12 7.41141C54.12 6.74141 53.58 6.20141 52.91 6.20141H47.43C46.76 6.20141 46.22 6.74141 46.22 7.41141V19.8214C46.22 24.5314 49.58 27.9014 54.3 27.9014C54.3 27.9014 57.84 27.9014 57.95 27.9214C58.59 27.9914 59.08 28.5314 59.08 29.1914C59.08 29.8414 58.6 30.3814 57.96 30.4614C57.93 30.4614 57.9 30.4714 57.87 30.4814L49.86 30.5114C49.19 30.5114 48.65 31.0514 48.65 31.7214V37.1914C48.65 37.8614 49.19 38.4014 49.86 38.4014H58.81C63.53 38.4014 66.89 35.0414 66.89 30.3314V7.41141C66.9 6.74141 66.36 6.20141 65.69 6.20141ZM34.53 6.23141H26.93C26.26 6.23141 25.71 6.74141 25.71 7.36141V9.49141C25.71 9.50141 25.71 9.52141 25.71 9.53141C25.71 9.55141 25.71 9.56141 25.71 9.58141V12.5014C25.71 13.1614 26.29 13.7114 27 13.7114H34.24C34.81 13.8014 35.26 14.2214 35.33 14.8714V15.5814C35.27 16.2014 34.82 16.6514 34.27 16.7014H30.69C25.92 16.7014 22.53 19.8714 22.53 24.3114V30.6814C22.53 35.1014 25.45 38.2414 30.18 38.2414H40.11C41.89 38.2414 43.34 36.8914 43.34 35.2314V14.4514C43.34 9.41141 40.74 6.23141 34.53 6.23141ZM35.4 29.0914V29.9514C35.4 30.0214 35.39 30.0914 35.38 30.1514C35.37 30.2114 35.35 30.2714 35.33 30.3314C35.16 30.8114 34.68 31.1614 34.11 31.1614H31.83C31.12 31.1614 30.54 30.6214 30.54 29.9514V28.9214C30.54 28.9114 30.54 28.8914 30.54 28.8814V26.1314V25.2714V25.2614C30.54 24.6014 31.12 24.0614 31.83 24.0614H34.11C34.82 24.0614 35.4 24.6014 35.4 25.2714V29.0914ZM13.16 6.19141H1.19C0.53 6.19141 0 6.73141 0 7.38141V12.7514C0 12.7614 0 12.7714 0 12.7814C0 12.8114 0 12.8314 0 12.8514V37.1414C0 37.8014 0.49 38.3414 1.11 38.3514H6.69C7.36 38.3514 7.9 37.8114 7.9 37.1414L7.92 28.8214H13.16C17.54 28.8214 20.6 25.7814 20.6 21.3714V13.6514C20.6 9.25141 17.54 6.19141 13.16 6.19141ZM12.68 16.2314V19.6114C12.68 20.3214 12.11 20.9014 11.4 20.9014H7.93V14.1314H11.4C12.11 14.1314 12.68 14.7014 12.68 15.4114V16.2314Z" fill="#20336B"/>
</g>
<path d="M142 13.4961L140.656 12.0221C137.5 8.5621 131.714 9.75609 129.625 14.1061C128.644 16.1521 128.423 19.1061 130.214 22.876C131.939 26.506 135.528 30.854 142 35.59C148.473 30.854 152.06 26.506 153.787 22.876C155.578 19.1041 155.358 16.1521 154.376 14.1061C152.287 9.75609 146.5 8.5601 143.345 12.0201L142 13.4961ZM142 38C113.25 17.7361 133.148 1.92012 141.67 10.2861C141.783 10.3961 141.893 10.5101 142 10.6281C142.106 10.5102 142.216 10.3968 142.33 10.2881C150.851 1.91612 170.751 17.7341 142 38Z" fill="#F1574B"/>
<path d="M129.5 12.3346L132.938 9.66797L136.375 8.66797L142 12.3346L145.126 9.66797L148.563 8.66797L154.501 12.668L156.063 18.0013L153.251 26.0012L147.938 31.6679L142 36.6679L135.125 31.0012L129.188 23.0013L127.938 16.6679L129.5 12.3346Z" fill="#F1574B"/>
<path fill-rule="evenodd" clip-rule="evenodd" d="M241.377 38.8506H235.891L243.514 6H249L241.377 38.8506ZM195.789 36.7927C195.489 38.09 194.489 38.9995 193.364 38.9995H165.085C164.31 38.9995 163.735 38.686 163.36 38.0602C162.985 37.4332 162.898 36.658 163.123 35.7338L170.021 6.08963H175.507L169.346 32.5725H191.291L197.451 6.08963H202.938L195.789 36.7927H195.789ZM238.528 7.02897C238.153 6.40257 237.565 6.08963 236.766 6.08963H206.624L205.137 12.5313H232.555L230.955 19.406H209.023V19.3908H203.538L198.989 39H204.475L207.524 25.8477H232.18C232.955 25.8477 233.68 25.5342 234.354 24.9084C235.029 24.282 235.479 23.5067 235.692 22.582L238.741 9.43024C238.978 8.44634 238.903 7.65587 238.528 7.02948L238.528 7.02897Z" fill="#20336B"/>
<path fill-rule="evenodd" clip-rule="evenodd" d="M262.397 4.83594L270 21.3359L254 37.8359L262.397 4.83594Z" fill="#E97208"/>
<path fill-rule="evenodd" clip-rule="evenodd" d="M267.39 4.83594L275 21.3359L259 37.8359L260.903 30.3513L269.653 21.3359L265.49 12.3094L267.39 4.83594Z" fill="#0E8635"/>
<defs>
<clipPath id="clip0_478_155">
<rect width="122.88" height="38.52" fill="white"/>
</clipPath>
</defs>
</svg>
