<svg width="271" height="71" viewBox="0 0 271 71" fill="none" xmlns="http://www.w3.org/2000/svg">
<rect width="271" height="71" fill="white"/>
<circle cx="6" cy="5" r="5" fill="#3B3E96"/>
<path d="M8 14.5547L27.6364 33.3925H47.2727L68 55.0006" stroke="#3B3E96" stroke-width="2"/>
<path d="M30.9119 14H9.09375L27.0938 29.5135H47.2756L30.9119 14Z" fill="#EC2D36" stroke="#EB3034"/>
<path d="M50.5447 39.4883H28.7266L46.7266 55.0018H66.9084L50.5447 39.4883Z" fill="#ED2D39" stroke="#EC2F35"/>
<path d="M172.5 11.5L183.5 19.5L174.5 55H161.5L172.5 11.5Z" fill="#3D3D95"/>
<path d="M202.063 29L213.5 29.5L213.282 33.25C214.084 33.4697 214.547 33.5561 215 33.25C216.954 29.9166 221 29.5 221 29.5C221 29.5 226.182 29.0404 229 30.5C229.971 34.103 229.9 35.5975 229.5 38L224.5 55H213.282L217.5 38.5C215.7 35.6513 214.689 34.9128 213.063 38.5L208.5 55H195.5L202.063 29Z" fill="#3D3D95"/>
<path d="M108.5 29.3496H119.93L113.5 55H102L108.5 29.3496Z" fill="#3D3D95"/>
<path d="M184.504 29L199.504 24.5L191.504 55H178.504L184.504 29Z" fill="#3D3D95"/>
<path d="M237.5 29H249L246 39H248.5L256.5 29H270L259 41L264 55H250.5L247.5 42.5H245L242 55H230.5L237.5 29Z" fill="#3D3D95"/>
<path d="M105.659 64.0175C105.757 63.4186 105.928 62.8672 106.171 62.3634C106.416 61.8595 106.739 61.3926 107.139 60.9628H108.125C107.972 61.1222 107.822 61.317 107.676 61.5472C107.531 61.7758 107.395 62.0269 107.27 62.3006C107.144 62.5742 107.035 62.8576 106.941 63.1506C106.848 63.442 106.777 63.7309 106.729 64.0175C106.665 64.399 106.639 64.7846 106.652 65.1741C106.666 65.5621 106.713 65.9227 106.792 66.256C106.872 66.5892 106.979 66.8621 107.111 67.0746H106.128C105.872 66.6447 105.705 66.1779 105.628 65.674C105.551 65.1701 105.561 64.6179 105.659 64.0175ZM109.065 66H107.944L109.651 61.0545H110.999L112.704 66H111.583L110.344 62.1847H110.306L109.065 66ZM108.995 64.0561H111.641V64.8723H108.995V64.0561ZM114.308 63.8557V66H113.28V62.2909H114.26V62.9453H114.304C114.386 62.7296 114.523 62.5589 114.716 62.4334C114.91 62.3062 115.144 62.2426 115.419 62.2426C115.677 62.2426 115.901 62.299 116.093 62.4116C116.284 62.5243 116.433 62.6853 116.54 62.8946C116.646 63.1023 116.699 63.3502 116.699 63.6384V66H115.67V63.8219C115.672 63.5949 115.614 63.4178 115.496 63.2906C115.379 63.1618 115.217 63.0974 115.011 63.0974C114.873 63.0974 114.75 63.1272 114.644 63.1868C114.539 63.2464 114.457 63.3333 114.398 63.4476C114.34 63.5603 114.31 63.6963 114.308 63.8557ZM122.158 61.0545H123.203V64.2662C123.203 64.6268 123.117 64.9423 122.945 65.2128C122.774 65.4832 122.535 65.6941 122.228 65.8455C121.92 65.9952 121.562 66.07 121.153 66.07C120.743 66.07 120.384 65.9952 120.076 65.8455C119.769 65.6941 119.529 65.4832 119.359 65.2128C119.188 64.9423 119.103 64.6268 119.103 64.2662V61.0545H120.148V64.1768C120.148 64.3652 120.19 64.5326 120.272 64.6791C120.355 64.8256 120.473 64.9407 120.624 65.0244C120.776 65.1081 120.952 65.15 121.153 65.15C121.356 65.15 121.532 65.1081 121.682 65.0244C121.833 64.9407 121.95 64.8256 122.032 64.6791C122.116 64.5326 122.158 64.3652 122.158 64.1768V61.0545ZM125.073 63.8557V66H124.044V62.2909H125.025V62.9453H125.068C125.15 62.7296 125.288 62.5589 125.481 62.4334C125.674 62.3062 125.908 62.2426 126.184 62.2426C126.441 62.2426 126.666 62.299 126.857 62.4116C127.049 62.5243 127.198 62.6853 127.304 62.8946C127.41 63.1023 127.463 63.3502 127.463 63.6384V66H126.435V63.8219C126.436 63.5949 126.378 63.4178 126.261 63.2906C126.143 63.1618 125.982 63.0974 125.775 63.0974C125.637 63.0974 125.515 63.1272 125.408 63.1868C125.304 63.2464 125.222 63.3333 125.162 63.4476C125.104 63.5603 125.074 63.6963 125.073 63.8557ZM129.641 66.0604C129.359 66.0604 129.104 65.9879 128.875 65.843C128.648 65.6965 128.468 65.4816 128.335 65.1983C128.203 64.9134 128.137 64.564 128.137 64.1503C128.137 63.7253 128.205 63.3719 128.342 63.0902C128.479 62.8069 128.661 62.5952 128.888 62.4551C129.116 62.3134 129.366 62.2426 129.639 62.2426C129.846 62.2426 130.019 62.278 130.158 62.3489C130.298 62.4181 130.41 62.505 130.496 62.6097C130.583 62.7127 130.649 62.8141 130.694 62.9139H130.725V61.0545H131.751V66H130.737V65.406H130.694C130.645 65.509 130.577 65.6112 130.489 65.7126C130.402 65.8125 130.288 65.8954 130.148 65.9614C130.01 66.0274 129.841 66.0604 129.641 66.0604ZM129.967 65.2418C130.133 65.2418 130.273 65.1967 130.387 65.1065C130.503 65.0148 130.592 64.8868 130.653 64.7226C130.716 64.5584 130.747 64.366 130.747 64.1455C130.747 63.9249 130.716 63.7333 130.655 63.5707C130.594 63.4081 130.505 63.2826 130.39 63.194C130.274 63.1055 130.133 63.0612 129.967 63.0612C129.798 63.0612 129.655 63.1071 129.54 63.1989C129.424 63.2906 129.336 63.4178 129.276 63.5804C129.217 63.743 129.187 63.9313 129.187 64.1455C129.187 64.3612 129.217 64.5519 129.276 64.7178C129.337 64.882 129.425 65.0107 129.54 65.1041C129.655 65.1959 129.798 65.2418 129.967 65.2418ZM134.288 66.0724C133.906 66.0724 133.578 65.9952 133.302 65.8406C133.029 65.6845 132.818 65.4639 132.67 65.179C132.522 64.8924 132.448 64.5536 132.448 64.1624C132.448 63.7808 132.522 63.446 132.67 63.1578C132.818 62.8696 133.026 62.6451 133.295 62.4841C133.566 62.3231 133.883 62.2426 134.247 62.2426C134.491 62.2426 134.719 62.2821 134.93 62.3609C135.142 62.4382 135.328 62.5549 135.485 62.7111C135.645 62.8672 135.769 63.0636 135.857 63.3003C135.946 63.5353 135.99 63.8106 135.99 64.1261V64.4087H132.858V63.7712H135.022C135.022 63.6231 134.989 63.4919 134.925 63.3776C134.861 63.2633 134.771 63.1739 134.657 63.1095C134.544 63.0435 134.413 63.0105 134.263 63.0105C134.107 63.0105 133.969 63.0467 133.848 63.1192C133.729 63.19 133.636 63.2858 133.568 63.4065C133.5 63.5257 133.466 63.6585 133.464 63.805V64.4111C133.464 64.5946 133.498 64.7532 133.566 64.8868C133.635 65.0204 133.732 65.1234 133.858 65.1959C133.983 65.2683 134.132 65.3045 134.304 65.3045C134.419 65.3045 134.523 65.2884 134.618 65.2562C134.713 65.2241 134.795 65.1758 134.862 65.1114C134.93 65.047 134.981 64.9681 135.017 64.8747L135.968 64.9375C135.92 65.1661 135.821 65.3657 135.671 65.5364C135.523 65.7054 135.332 65.8374 135.097 65.9324C134.863 66.0258 134.593 66.0724 134.288 66.0724ZM136.661 66V62.2909H137.659V62.9381H137.697C137.765 62.7079 137.878 62.534 138.038 62.4165C138.197 62.2973 138.381 62.2378 138.588 62.2378C138.64 62.2378 138.695 62.241 138.755 62.2474C138.814 62.2539 138.867 62.2627 138.912 62.274V63.1868C138.864 63.1723 138.797 63.1594 138.711 63.1482C138.626 63.1369 138.548 63.1312 138.477 63.1312C138.326 63.1312 138.191 63.1643 138.072 63.2303C137.954 63.2946 137.861 63.3848 137.791 63.5007C137.724 63.6166 137.69 63.7502 137.69 63.9016V66H136.661ZM141.603 62.2909V63.0636H139.369V62.2909H141.603ZM139.876 61.4023H140.905V64.8602C140.905 64.9552 140.919 65.0293 140.948 65.0824C140.977 65.1339 141.017 65.1701 141.069 65.1911C141.122 65.212 141.183 65.2224 141.252 65.2224C141.301 65.2224 141.349 65.2184 141.397 65.2104C141.446 65.2007 141.483 65.1935 141.508 65.1886L141.67 65.9541C141.619 65.9702 141.546 65.9887 141.453 66.0097C141.359 66.0322 141.246 66.0459 141.112 66.0507C140.864 66.0604 140.647 66.0274 140.46 65.9517C140.275 65.876 140.131 65.7585 140.028 65.5991C139.925 65.4398 139.874 65.2385 139.876 64.9955V61.4023ZM143.33 66.07C143.094 66.07 142.883 66.029 142.698 65.9469C142.512 65.8632 142.366 65.74 142.258 65.5774C142.152 65.4132 142.099 65.2088 142.099 64.9641C142.099 64.758 142.137 64.5849 142.212 64.4449C142.288 64.3048 142.391 64.1921 142.521 64.1068C142.652 64.0215 142.8 63.9571 142.966 63.9136C143.133 63.8702 143.309 63.8396 143.492 63.8219C143.708 63.7993 143.882 63.7784 144.014 63.7591C144.146 63.7382 144.241 63.7076 144.301 63.6673C144.361 63.6271 144.39 63.5675 144.39 63.4886V63.4741C144.39 63.3212 144.342 63.2029 144.245 63.1192C144.151 63.0355 144.015 62.9936 143.84 62.9936C143.655 62.9936 143.507 63.0347 143.398 63.1168C143.288 63.1973 143.216 63.2987 143.181 63.421L142.229 63.3437C142.277 63.1184 142.372 62.9236 142.514 62.7594C142.656 62.5936 142.838 62.4664 143.062 62.3778C143.288 62.2877 143.548 62.2426 143.845 62.2426C144.051 62.2426 144.248 62.2668 144.436 62.3151C144.626 62.3634 144.794 62.4382 144.941 62.5396C145.089 62.6411 145.206 62.7714 145.291 62.9308C145.376 63.0886 145.419 63.2777 145.419 63.4983V66H144.444V65.4857H144.415C144.355 65.6016 144.275 65.7038 144.175 65.7923C144.076 65.8793 143.956 65.9477 143.816 65.9976C143.676 66.0459 143.514 66.07 143.33 66.07ZM143.625 65.3601C143.776 65.3601 143.91 65.3303 144.026 65.2707C144.142 65.2096 144.233 65.1275 144.299 65.0244C144.365 64.9214 144.398 64.8047 144.398 64.6743V64.2807C144.365 64.3016 144.321 64.3209 144.265 64.3386C144.21 64.3547 144.148 64.37 144.079 64.3845C144.01 64.3974 143.94 64.4095 143.871 64.4207C143.802 64.4304 143.739 64.4393 143.683 64.4473C143.562 64.465 143.457 64.4932 143.367 64.5318C143.276 64.5705 143.206 64.6228 143.156 64.6888C143.107 64.7532 143.082 64.8337 143.082 64.9303C143.082 65.0703 143.132 65.1774 143.234 65.2514C143.337 65.3239 143.467 65.3601 143.625 65.3601ZM147.149 64.9327L147.152 63.6987H147.301L148.489 62.2909H149.67L148.074 64.1551H147.83L147.149 64.9327ZM146.217 66V61.0545H147.246V66H146.217ZM148.535 66L147.444 64.3845L148.13 63.6577L149.74 66H148.535ZM150.175 66V62.2909H151.204V66H150.175ZM150.692 61.8128C150.539 61.8128 150.408 61.7621 150.298 61.6607C150.19 61.5576 150.136 61.4345 150.136 61.2912C150.136 61.1495 150.19 61.028 150.298 60.9266C150.408 60.8235 150.539 60.772 150.692 60.772C150.845 60.772 150.975 60.8235 151.083 60.9266C151.192 61.028 151.247 61.1495 151.247 61.2912C151.247 61.4345 151.192 61.5576 151.083 61.6607C150.975 61.7621 150.845 61.8128 150.692 61.8128ZM153.056 63.8557V66H152.028V62.2909H153.008V62.9453H153.052C153.134 62.7296 153.271 62.5589 153.464 62.4334C153.658 62.3062 153.892 62.2426 154.167 62.2426C154.425 62.2426 154.649 62.299 154.841 62.4116C155.032 62.5243 155.181 62.6853 155.288 62.8946C155.394 63.1023 155.447 63.3502 155.447 63.6384V66H154.418V63.8219C154.42 63.5949 154.362 63.4178 154.244 63.2906C154.127 63.1618 153.965 63.0974 153.759 63.0974C153.621 63.0974 153.498 63.1272 153.392 63.1868C153.287 63.2464 153.205 63.3333 153.146 63.4476C153.088 63.5603 153.058 63.6963 153.056 63.8557ZM157.929 67.4682C157.596 67.4682 157.31 67.4223 157.072 67.3305C156.835 67.2404 156.647 67.1172 156.507 66.9611C156.366 66.8049 156.275 66.6295 156.234 66.4347L157.185 66.3067C157.214 66.3807 157.26 66.45 157.323 66.5143C157.385 66.5787 157.468 66.6303 157.571 66.6689C157.676 66.7091 157.803 66.7293 157.953 66.7293C158.177 66.7293 158.361 66.6745 158.506 66.5651C158.652 66.4572 158.726 66.2761 158.726 66.0217V65.3432H158.682C158.637 65.4462 158.57 65.5436 158.479 65.6354C158.389 65.7271 158.273 65.802 158.132 65.8599C157.99 65.9179 157.821 65.9469 157.625 65.9469C157.346 65.9469 157.092 65.8825 156.864 65.7537C156.637 65.6233 156.456 65.4245 156.321 65.1572C156.187 64.8884 156.12 64.5487 156.12 64.1382C156.12 63.718 156.189 63.3671 156.325 63.0854C156.462 62.8036 156.644 62.5928 156.871 62.4527C157.1 62.3126 157.35 62.2426 157.622 62.2426C157.83 62.2426 158.004 62.278 158.144 62.3489C158.284 62.4181 158.396 62.505 158.482 62.6097C158.569 62.7127 158.636 62.8141 158.682 62.9139H158.721V62.2909H159.742V66.0362C159.742 66.3518 159.665 66.6158 159.51 66.8283C159.356 67.0408 159.142 67.2001 158.868 67.3064C158.596 67.4143 158.283 67.4682 157.929 67.4682ZM157.951 65.1741C158.116 65.1741 158.256 65.1331 158.371 65.051C158.487 64.9673 158.575 64.8482 158.636 64.6936C158.699 64.5375 158.731 64.3507 158.731 64.1334C158.731 63.9161 158.7 63.7277 158.639 63.5683C158.578 63.4073 158.489 63.2826 158.373 63.194C158.257 63.1055 158.116 63.0612 157.951 63.0612C157.782 63.0612 157.639 63.1071 157.523 63.1989C157.407 63.289 157.319 63.4146 157.26 63.5756C157.2 63.7366 157.171 63.9225 157.171 64.1334C157.171 64.3475 157.2 64.5326 157.26 64.6888C157.321 64.8433 157.409 64.9633 157.523 65.0486C157.639 65.1323 157.782 65.1741 157.951 65.1741ZM163.811 66.0724C163.435 66.0724 163.111 65.9928 162.837 65.8334C162.565 65.6724 162.355 65.4486 162.207 65.1621C162.059 64.8739 161.985 64.5399 161.985 64.1599C161.985 63.7768 162.059 63.442 162.207 63.1554C162.355 62.8672 162.565 62.6435 162.837 62.4841C163.111 62.3231 163.435 62.2426 163.811 62.2426C164.186 62.2426 164.509 62.3231 164.781 62.4841C165.055 62.6435 165.266 62.8672 165.414 63.1554C165.562 63.442 165.636 63.7768 165.636 64.1599C165.636 64.5399 165.562 64.8739 165.414 65.1621C165.266 65.4486 165.055 65.6724 164.781 65.8334C164.509 65.9928 164.186 66.0724 163.811 66.0724ZM163.815 65.2756C163.986 65.2756 164.129 65.2273 164.243 65.1307C164.357 65.0325 164.443 64.8989 164.501 64.7298C164.561 64.5608 164.591 64.3684 164.591 64.1527C164.591 63.937 164.561 63.7446 164.501 63.5756C164.443 63.4065 164.357 63.2729 164.243 63.1747C164.129 63.0765 163.986 63.0274 163.815 63.0274C163.643 63.0274 163.498 63.0765 163.381 63.1747C163.265 63.2729 163.177 63.4065 163.118 63.5756C163.06 63.7446 163.031 63.937 163.031 64.1527C163.031 64.3684 163.06 64.5608 163.118 64.7298C163.177 64.8989 163.265 65.0325 163.381 65.1307C163.498 65.2273 163.643 65.2756 163.815 65.2756ZM168.3 62.2909V63.0636H166.01V62.2909H168.3ZM166.534 66V62.0229C166.534 61.754 166.587 61.5311 166.691 61.354C166.798 61.1769 166.943 61.0441 167.126 60.9555C167.31 60.867 167.518 60.8227 167.751 60.8227C167.909 60.8227 168.053 60.8348 168.184 60.8589C168.316 60.8831 168.414 60.9048 168.478 60.9241L168.295 61.6969C168.255 61.684 168.205 61.6719 168.145 61.6607C168.087 61.6494 168.028 61.6437 167.966 61.6437C167.815 61.6437 167.71 61.6792 167.65 61.75C167.591 61.8192 167.561 61.9166 167.561 62.0422V66H166.534ZM173.204 62.4768C173.185 62.2821 173.102 62.1307 172.955 62.0229C172.809 61.915 172.61 61.8611 172.359 61.8611C172.188 61.8611 172.044 61.8852 171.927 61.9335C171.809 61.9802 171.719 62.0454 171.656 62.1291C171.595 62.2128 171.564 62.3078 171.564 62.4141C171.561 62.5026 171.58 62.5799 171.62 62.6459C171.662 62.7119 171.719 62.769 171.791 62.8173C171.864 62.864 171.948 62.9051 172.043 62.9405C172.138 62.9743 172.239 63.0033 172.347 63.0274L172.791 63.1337C173.007 63.182 173.205 63.2464 173.385 63.3268C173.565 63.4073 173.722 63.5063 173.854 63.6239C173.986 63.7414 174.088 63.8798 174.16 64.0392C174.234 64.1986 174.272 64.3813 174.274 64.5874C174.272 64.89 174.195 65.1524 174.042 65.3746C173.891 65.5951 173.672 65.7666 173.385 65.8889C173.1 66.0097 172.757 66.07 172.354 66.07C171.955 66.07 171.607 66.0089 171.311 65.8865C171.016 65.7642 170.786 65.583 170.62 65.3432C170.456 65.1017 170.37 64.8031 170.362 64.4473H171.374C171.385 64.6131 171.432 64.7516 171.516 64.8626C171.601 64.9721 171.715 65.055 171.857 65.1114C172 65.1661 172.162 65.1935 172.342 65.1935C172.519 65.1935 172.673 65.1677 172.803 65.1162C172.935 65.0647 173.037 64.993 173.11 64.9013C173.182 64.8095 173.219 64.7041 173.219 64.5849C173.219 64.4739 173.186 64.3805 173.12 64.3048C173.055 64.2292 172.96 64.1648 172.835 64.1116C172.711 64.0585 172.559 64.0102 172.378 63.9668L171.84 63.8315C171.423 63.7301 171.094 63.5715 170.852 63.3558C170.611 63.1401 170.491 62.8495 170.492 62.4841C170.491 62.1847 170.57 61.9231 170.731 61.6993C170.894 61.4755 171.117 61.3009 171.4 61.1753C171.684 61.0497 172.006 60.9869 172.366 60.9869C172.733 60.9869 173.054 61.0497 173.327 61.1753C173.602 61.3009 173.817 61.4755 173.97 61.6993C174.122 61.9231 174.201 62.1822 174.206 62.4768H173.204ZM177.336 64.4207V62.2909H178.365V66H177.377V65.3263H177.339C177.255 65.5436 177.116 65.7183 176.921 65.8503C176.728 65.9823 176.492 66.0483 176.213 66.0483C175.966 66.0483 175.747 65.992 175.559 65.8793C175.371 65.7666 175.223 65.6064 175.117 65.3987C175.013 65.1911 174.959 64.9423 174.958 64.6526V62.2909H175.986V64.469C175.988 64.688 176.047 64.861 176.163 64.9882C176.279 65.1154 176.434 65.179 176.629 65.179C176.753 65.179 176.869 65.1508 176.977 65.0945C177.084 65.0365 177.171 64.9512 177.237 64.8385C177.305 64.7258 177.338 64.5866 177.336 64.4207ZM179.188 66V62.2909H180.185V62.9381H180.224C180.291 62.7079 180.405 62.534 180.564 62.4165C180.724 62.2973 180.907 62.2378 181.115 62.2378C181.166 62.2378 181.222 62.241 181.281 62.2474C181.341 62.2539 181.393 62.2627 181.438 62.274V63.1868C181.39 63.1723 181.323 63.1594 181.238 63.1482C181.153 63.1369 181.075 63.1312 181.004 63.1312C180.852 63.1312 180.717 63.1643 180.598 63.2303C180.481 63.2946 180.387 63.3848 180.318 63.5007C180.25 63.6166 180.217 63.7502 180.217 63.9016V66H179.188ZM182.922 66.07C182.685 66.07 182.474 66.029 182.289 65.9469C182.104 65.8632 181.957 65.74 181.85 65.5774C181.743 65.4132 181.69 65.2088 181.69 64.9641C181.69 64.758 181.728 64.5849 181.804 64.4449C181.879 64.3048 181.982 64.1921 182.113 64.1068C182.243 64.0215 182.391 63.9571 182.557 63.9136C182.724 63.8702 182.9 63.8396 183.083 63.8219C183.299 63.7993 183.473 63.7784 183.605 63.7591C183.737 63.7382 183.833 63.7076 183.892 63.6673C183.952 63.6271 183.982 63.5675 183.982 63.4886V63.4741C183.982 63.3212 183.933 63.2029 183.837 63.1192C183.742 63.0355 183.607 62.9936 183.431 62.9936C183.246 62.9936 183.099 63.0347 182.989 63.1168C182.88 63.1973 182.807 63.2987 182.772 63.421L181.821 63.3437C181.869 63.1184 181.964 62.9236 182.106 62.7594C182.247 62.5936 182.43 62.4664 182.654 62.3778C182.879 62.2877 183.14 62.2426 183.436 62.2426C183.642 62.2426 183.839 62.2668 184.028 62.3151C184.218 62.3634 184.386 62.4382 184.532 62.5396C184.68 62.6411 184.797 62.7714 184.882 62.9308C184.968 63.0886 185.01 63.2777 185.01 63.4983V66H184.035V65.4857H184.006C183.946 65.6016 183.867 65.7038 183.767 65.7923C183.667 65.8793 183.547 65.9477 183.407 65.9976C183.267 66.0459 183.105 66.07 182.922 66.07ZM183.216 65.3601C183.368 65.3601 183.501 65.3303 183.617 65.2707C183.733 65.2096 183.824 65.1275 183.89 65.0244C183.956 64.9214 183.989 64.8047 183.989 64.6743V64.2807C183.957 64.3016 183.913 64.3209 183.856 64.3386C183.801 64.3547 183.74 64.37 183.67 64.3845C183.601 64.3974 183.532 64.4095 183.463 64.4207C183.393 64.4304 183.331 64.4393 183.274 64.4473C183.154 64.465 183.048 64.4932 182.958 64.5318C182.868 64.5705 182.798 64.6228 182.748 64.6888C182.698 64.7532 182.673 64.8337 182.673 64.9303C182.673 65.0703 182.724 65.1774 182.825 65.2514C182.928 65.3239 183.059 65.3601 183.216 65.3601ZM187.781 62.2909V63.0636H185.548V62.2909H187.781ZM186.055 61.4023H187.084V64.8602C187.084 64.9552 187.098 65.0293 187.127 65.0824C187.156 65.1339 187.196 65.1701 187.248 65.1911C187.301 65.212 187.362 65.2224 187.431 65.2224C187.48 65.2224 187.528 65.2184 187.576 65.2104C187.624 65.2007 187.661 65.1935 187.687 65.1886L187.849 65.9541C187.798 65.9702 187.725 65.9887 187.632 66.0097C187.538 66.0322 187.425 66.0459 187.291 66.0507C187.043 66.0604 186.826 66.0274 186.639 65.9517C186.454 65.876 186.31 65.7585 186.207 65.5991C186.104 65.4398 186.053 65.2385 186.055 64.9955V61.4023ZM190.045 61.0545H191.334L192.696 64.3773H192.754L194.116 61.0545H195.405V66H194.391V62.7811H194.35L193.07 65.9759H192.38L191.1 62.769H191.059V66H190.045V61.0545ZM198.626 64.4207V62.2909H199.655V66H198.667V65.3263H198.629C198.545 65.5436 198.406 65.7183 198.211 65.8503C198.018 65.9823 197.782 66.0483 197.503 66.0483C197.255 66.0483 197.037 65.992 196.849 65.8793C196.661 65.7666 196.513 65.6064 196.407 65.3987C196.302 65.1911 196.249 64.9423 196.248 64.6526V62.2909H197.276V64.469C197.278 64.688 197.337 64.861 197.453 64.9882C197.569 65.1154 197.724 65.179 197.919 65.179C198.043 65.179 198.159 65.1508 198.266 65.0945C198.374 65.0365 198.461 64.9512 198.527 64.8385C198.595 64.7258 198.628 64.5866 198.626 64.4207ZM201.506 63.8557V66H200.478V62.2909H201.458V62.9453H201.502C201.584 62.7296 201.721 62.5589 201.914 62.4334C202.108 62.3062 202.342 62.2426 202.617 62.2426C202.875 62.2426 203.099 62.299 203.291 62.4116C203.482 62.5243 203.631 62.6853 203.738 62.8946C203.844 63.1023 203.897 63.3502 203.897 63.6384V66H202.868V63.8219C202.87 63.5949 202.812 63.4178 202.694 63.2906C202.577 63.1618 202.415 63.0974 202.209 63.0974C202.071 63.0974 201.948 63.1272 201.842 63.1868C201.737 63.2464 201.655 63.3333 201.596 63.4476C201.538 63.5603 201.508 63.6963 201.506 63.8557ZM204.708 66V62.2909H205.736V66H204.708ZM205.225 61.8128C205.072 61.8128 204.94 61.7621 204.831 61.6607C204.723 61.5576 204.669 61.4345 204.669 61.2912C204.669 61.1495 204.723 61.028 204.831 60.9266C204.94 60.8235 205.072 60.772 205.225 60.772C205.377 60.772 205.508 60.8235 205.616 60.9266C205.725 61.028 205.78 61.1495 205.78 61.2912C205.78 61.4345 205.725 61.5576 205.616 61.6607C205.508 61.7621 205.377 61.8128 205.225 61.8128ZM208.236 66.0724C207.856 66.0724 207.53 65.992 207.256 65.831C206.984 65.6684 206.775 65.443 206.628 65.1548C206.483 64.8667 206.411 64.535 206.411 64.1599C206.411 63.78 206.484 63.4468 206.631 63.1602C206.779 62.8721 206.989 62.6475 207.261 62.4865C207.533 62.3239 207.856 62.2426 208.232 62.2426C208.555 62.2426 208.838 62.3014 209.082 62.4189C209.325 62.5364 209.517 62.7014 209.659 62.9139C209.8 63.1264 209.878 63.3759 209.893 63.6625H208.922C208.895 63.4774 208.822 63.3285 208.705 63.2158C208.589 63.1015 208.437 63.0443 208.248 63.0443C208.089 63.0443 207.95 63.0878 207.831 63.1747C207.713 63.26 207.621 63.3848 207.555 63.549C207.489 63.7132 207.456 63.912 207.456 64.1455C207.456 64.3821 207.489 64.5833 207.553 64.7491C207.619 64.915 207.712 65.0413 207.831 65.1283C207.95 65.2152 208.089 65.2587 208.248 65.2587C208.366 65.2587 208.471 65.2345 208.565 65.1862C208.66 65.1379 208.738 65.0679 208.799 64.9761C208.862 64.8828 208.903 64.7709 208.922 64.6405H209.893C209.877 64.9238 209.8 65.1733 209.661 65.3891C209.524 65.6032 209.335 65.7706 209.094 65.8913C208.852 66.0121 208.566 66.0724 208.236 66.0724ZM210.552 66V62.2909H211.58V66H210.552ZM211.068 61.8128C210.915 61.8128 210.784 61.7621 210.675 61.6607C210.567 61.5576 210.513 61.4345 210.513 61.2912C210.513 61.1495 210.567 61.028 210.675 60.9266C210.784 60.8235 210.915 60.772 211.068 60.772C211.221 60.772 211.352 60.8235 211.459 60.9266C211.569 61.028 211.624 61.1495 211.624 61.2912C211.624 61.4345 211.569 61.5576 211.459 61.6607C211.352 61.7621 211.221 61.8128 211.068 61.8128ZM212.404 67.3909V62.2909H213.418V62.9139H213.464C213.509 62.8141 213.575 62.7127 213.66 62.6097C213.747 62.505 213.86 62.4181 213.998 62.3489C214.138 62.278 214.312 62.2426 214.52 62.2426C214.79 62.2426 215.04 62.3134 215.268 62.4551C215.497 62.5952 215.679 62.8069 215.816 63.0902C215.953 63.3719 216.022 63.7253 216.022 64.1503C216.022 64.564 215.955 64.9134 215.821 65.1983C215.689 65.4816 215.509 65.6965 215.28 65.843C215.053 65.9879 214.799 66.0604 214.517 66.0604C214.318 66.0604 214.148 66.0274 214.008 65.9614C213.869 65.8954 213.756 65.8125 213.667 65.7126C213.579 65.6112 213.511 65.509 213.464 65.406H213.433V67.3909H212.404ZM213.411 64.1455C213.411 64.366 213.442 64.5584 213.503 64.7226C213.564 64.8868 213.653 65.0148 213.769 65.1065C213.885 65.1967 214.025 65.2418 214.191 65.2418C214.359 65.2418 214.5 65.1959 214.616 65.1041C214.732 65.0107 214.82 64.882 214.879 64.7178C214.941 64.5519 214.971 64.3612 214.971 64.1455C214.971 63.9313 214.941 63.743 214.882 63.5804C214.822 63.4178 214.735 63.2906 214.619 63.1989C214.503 63.1071 214.36 63.0612 214.191 63.0612C214.024 63.0612 213.882 63.1055 213.766 63.194C213.652 63.2826 213.564 63.4081 213.503 63.5707C213.442 63.7333 213.411 63.9249 213.411 64.1455ZM217.765 66.07C217.528 66.07 217.318 66.029 217.132 65.9469C216.947 65.8632 216.801 65.74 216.693 65.5774C216.587 65.4132 216.534 65.2088 216.534 64.9641C216.534 64.758 216.571 64.5849 216.647 64.4449C216.723 64.3048 216.826 64.1921 216.956 64.1068C217.087 64.0215 217.235 63.9571 217.4 63.9136C217.568 63.8702 217.743 63.8396 217.927 63.8219C218.143 63.7993 218.316 63.7784 218.448 63.7591C218.58 63.7382 218.676 63.7076 218.736 63.6673C218.795 63.6271 218.825 63.5675 218.825 63.4886V63.4741C218.825 63.3212 218.777 63.2029 218.68 63.1192C218.585 63.0355 218.45 62.9936 218.275 62.9936C218.089 62.9936 217.942 63.0347 217.833 63.1168C217.723 63.1973 217.651 63.2987 217.615 63.421L216.664 63.3437C216.712 63.1184 216.807 62.9236 216.949 62.7594C217.091 62.5936 217.273 62.4664 217.497 62.3778C217.722 62.2877 217.983 62.2426 218.279 62.2426C218.485 62.2426 218.683 62.2668 218.871 62.3151C219.061 62.3634 219.229 62.4382 219.376 62.5396C219.524 62.6411 219.641 62.7714 219.726 62.9308C219.811 63.0886 219.854 63.2777 219.854 63.4983V66H218.878V65.4857H218.849C218.79 65.6016 218.71 65.7038 218.61 65.7923C218.51 65.8793 218.39 65.9477 218.25 65.9976C218.11 66.0459 217.949 66.07 217.765 66.07ZM218.06 65.3601C218.211 65.3601 218.345 65.3303 218.461 65.2707C218.576 65.2096 218.667 65.1275 218.733 65.0244C218.799 64.9214 218.832 64.8047 218.832 64.6743V64.2807C218.8 64.3016 218.756 64.3209 218.7 64.3386C218.645 64.3547 218.583 64.37 218.514 64.3845C218.444 64.3974 218.375 64.4095 218.306 64.4207C218.237 64.4304 218.174 64.4393 218.118 64.4473C217.997 64.465 217.891 64.4932 217.801 64.5318C217.711 64.5705 217.641 64.6228 217.591 64.6888C217.541 64.7532 217.516 64.8337 217.516 64.9303C217.516 65.0703 217.567 65.1774 217.668 65.2514C217.771 65.3239 217.902 65.3601 218.06 65.3601ZM221.681 61.0545V66H220.652V61.0545H221.681ZM228.461 62.7859H227.404C227.384 62.6491 227.345 62.5276 227.285 62.4213C227.226 62.3134 227.149 62.2217 227.056 62.146C226.963 62.0704 226.855 62.0124 226.732 61.9722C226.612 61.9319 226.48 61.9118 226.339 61.9118C226.083 61.9118 225.86 61.9754 225.67 62.1026C225.48 62.2281 225.333 62.4116 225.228 62.6531C225.123 62.893 225.071 63.1844 225.071 63.5273C225.071 63.8798 225.123 64.176 225.228 64.4159C225.334 64.6558 225.482 64.8369 225.672 64.9592C225.862 65.0816 226.082 65.1428 226.331 65.1428C226.472 65.1428 226.601 65.1242 226.72 65.0872C226.841 65.0502 226.948 64.9963 227.041 64.9254C227.135 64.853 227.212 64.7652 227.273 64.6622C227.336 64.5592 227.379 64.4417 227.404 64.3097L228.461 64.3145C228.434 64.5415 228.366 64.7604 228.256 64.9713C228.148 65.1806 228.002 65.3681 227.819 65.5339C227.637 65.6982 227.42 65.8286 227.167 65.9251C226.916 66.0201 226.632 66.0676 226.315 66.0676C225.873 66.0676 225.479 65.9678 225.131 65.7682C224.785 65.5686 224.512 65.2796 224.31 64.9013C224.111 64.523 224.011 64.065 224.011 63.5273C224.011 62.988 224.112 62.5292 224.315 62.1509C224.518 61.7725 224.793 61.4844 225.141 61.2864C225.489 61.0867 225.88 60.9869 226.315 60.9869C226.601 60.9869 226.867 61.0272 227.111 61.1077C227.358 61.1882 227.576 61.3057 227.766 61.4602C227.956 61.6132 228.11 61.8007 228.229 62.0229C228.35 62.245 228.427 62.4994 228.461 62.7859ZM230.868 66.0724C230.493 66.0724 230.168 65.9928 229.894 65.8334C229.622 65.6724 229.412 65.4486 229.264 65.1621C229.116 64.8739 229.042 64.5399 229.042 64.1599C229.042 63.7768 229.116 63.442 229.264 63.1554C229.412 62.8672 229.622 62.6435 229.894 62.4841C230.168 62.3231 230.493 62.2426 230.868 62.2426C231.243 62.2426 231.566 62.3231 231.838 62.4841C232.112 62.6435 232.323 62.8672 232.471 63.1554C232.619 63.442 232.693 63.7768 232.693 64.1599C232.693 64.5399 232.619 64.8739 232.471 65.1621C232.323 65.4486 232.112 65.6724 231.838 65.8334C231.566 65.9928 231.243 66.0724 230.868 66.0724ZM230.872 65.2756C231.043 65.2756 231.186 65.2273 231.3 65.1307C231.414 65.0325 231.5 64.8989 231.558 64.7298C231.618 64.5608 231.648 64.3684 231.648 64.1527C231.648 63.937 231.618 63.7446 231.558 63.5756C231.5 63.4065 231.414 63.2729 231.3 63.1747C231.186 63.0765 231.043 63.0274 230.872 63.0274C230.7 63.0274 230.555 63.0765 230.438 63.1747C230.322 63.2729 230.234 63.4065 230.175 63.5756C230.117 63.7446 230.088 63.937 230.088 64.1527C230.088 64.3684 230.117 64.5608 230.175 64.7298C230.234 64.8989 230.322 65.0325 230.438 65.1307C230.555 65.2273 230.7 65.2756 230.872 65.2756ZM233.362 66V62.2909H234.359V62.9381H234.398C234.466 62.7079 234.579 62.534 234.739 62.4165C234.898 62.2973 235.081 62.2378 235.289 62.2378C235.341 62.2378 235.396 62.241 235.456 62.2474C235.515 62.2539 235.568 62.2627 235.613 62.274V63.1868C235.564 63.1723 235.498 63.1594 235.412 63.1482C235.327 63.1369 235.249 63.1312 235.178 63.1312C235.027 63.1312 234.891 63.1643 234.772 63.2303C234.655 63.2946 234.561 63.3848 234.492 63.5007C234.425 63.6166 234.391 63.7502 234.391 63.9016V66H233.362ZM236.145 67.3909V62.2909H237.159V62.9139H237.205C237.25 62.8141 237.315 62.7127 237.4 62.6097C237.487 62.505 237.6 62.4181 237.738 62.3489C237.878 62.278 238.052 62.2426 238.26 62.2426C238.53 62.2426 238.78 62.3134 239.008 62.4551C239.237 62.5952 239.42 62.8069 239.557 63.0902C239.693 63.3719 239.762 63.7253 239.762 64.1503C239.762 64.564 239.695 64.9134 239.561 65.1983C239.429 65.4816 239.249 65.6965 239.02 65.843C238.794 65.9879 238.539 66.0604 238.257 66.0604C238.058 66.0604 237.888 66.0274 237.748 65.9614C237.609 65.8954 237.496 65.8125 237.407 65.7126C237.319 65.6112 237.251 65.509 237.205 65.406H237.173V67.3909H236.145ZM237.151 64.1455C237.151 64.366 237.182 64.5584 237.243 64.7226C237.304 64.8868 237.393 65.0148 237.509 65.1065C237.625 65.1967 237.766 65.2418 237.931 65.2418C238.099 65.2418 238.241 65.1959 238.356 65.1041C238.472 65.0107 238.56 64.882 238.62 64.7178C238.681 64.5519 238.711 64.3612 238.711 64.1455C238.711 63.9313 238.682 63.743 238.622 63.5804C238.562 63.4178 238.475 63.2906 238.359 63.1989C238.243 63.1071 238.1 63.0612 237.931 63.0612C237.764 63.0612 237.622 63.1055 237.506 63.194C237.392 63.2826 237.304 63.4081 237.243 63.5707C237.182 63.7333 237.151 63.9249 237.151 64.1455ZM242.123 66.0724C241.748 66.0724 241.424 65.9928 241.15 65.8334C240.878 65.6724 240.668 65.4486 240.52 65.1621C240.372 64.8739 240.298 64.5399 240.298 64.1599C240.298 63.7768 240.372 63.442 240.52 63.1554C240.668 62.8672 240.878 62.6435 241.15 62.4841C241.424 62.3231 241.748 62.2426 242.123 62.2426C242.499 62.2426 242.822 62.3231 243.094 62.4841C243.368 62.6435 243.579 62.8672 243.727 63.1554C243.875 63.442 243.949 63.7768 243.949 64.1599C243.949 64.5399 243.875 64.8739 243.727 65.1621C243.579 65.4486 243.368 65.6724 243.094 65.8334C242.822 65.9928 242.499 66.0724 242.123 66.0724ZM242.128 65.2756C242.299 65.2756 242.441 65.2273 242.556 65.1307C242.67 65.0325 242.756 64.8989 242.814 64.7298C242.874 64.5608 242.903 64.3684 242.903 64.1527C242.903 63.937 242.874 63.7446 242.814 63.5756C242.756 63.4065 242.67 63.2729 242.556 63.1747C242.441 63.0765 242.299 63.0274 242.128 63.0274C241.956 63.0274 241.811 63.0765 241.694 63.1747C241.578 63.2729 241.49 63.4065 241.43 63.5756C241.372 63.7446 241.344 63.937 241.344 64.1527C241.344 64.3684 241.372 64.5608 241.43 64.7298C241.49 64.8989 241.578 65.0325 241.694 65.1307C241.811 65.2273 241.956 65.2756 242.128 65.2756ZM244.618 66V62.2909H245.615V62.9381H245.654C245.721 62.7079 245.835 62.534 245.994 62.4165C246.154 62.2973 246.337 62.2378 246.545 62.2378C246.596 62.2378 246.652 62.241 246.712 62.2474C246.771 62.2539 246.823 62.2627 246.869 62.274V63.1868C246.82 63.1723 246.753 63.1594 246.668 63.1482C246.583 63.1369 246.505 63.1312 246.434 63.1312C246.283 63.1312 246.147 63.1643 246.028 63.2303C245.911 63.2946 245.817 63.3848 245.748 63.5007C245.68 63.6166 245.647 63.7502 245.647 63.9016V66H244.618ZM248.352 66.07C248.115 66.07 247.904 66.029 247.719 65.9469C247.534 65.8632 247.387 65.74 247.28 65.5774C247.173 65.4132 247.12 65.2088 247.12 64.9641C247.12 64.758 247.158 64.5849 247.234 64.4449C247.309 64.3048 247.412 64.1921 247.543 64.1068C247.673 64.0215 247.821 63.9571 247.987 63.9136C248.155 63.8702 248.33 63.8396 248.514 63.8219C248.729 63.7993 248.903 63.7784 249.035 63.7591C249.167 63.7382 249.263 63.7076 249.323 63.6673C249.382 63.6271 249.412 63.5675 249.412 63.4886V63.4741C249.412 63.3212 249.364 63.2029 249.267 63.1192C249.172 63.0355 249.037 62.9936 248.861 62.9936C248.676 62.9936 248.529 63.0347 248.419 63.1168C248.31 63.1973 248.237 63.2987 248.202 63.421L247.251 63.3437C247.299 63.1184 247.394 62.9236 247.536 62.7594C247.677 62.5936 247.86 62.4664 248.084 62.3778C248.309 62.2877 248.57 62.2426 248.866 62.2426C249.072 62.2426 249.269 62.2668 249.458 62.3151C249.648 62.3634 249.816 62.4382 249.962 62.5396C250.111 62.6411 250.227 62.7714 250.313 62.9308C250.398 63.0886 250.441 63.2777 250.441 63.4983V66H249.465V65.4857H249.436C249.376 65.6016 249.297 65.7038 249.197 65.7923C249.097 65.8793 248.977 65.9477 248.837 65.9976C248.697 66.0459 248.535 66.07 248.352 66.07ZM248.646 65.3601C248.798 65.3601 248.931 65.3303 249.047 65.2707C249.163 65.2096 249.254 65.1275 249.32 65.0244C249.386 64.9214 249.419 64.8047 249.419 64.6743V64.2807C249.387 64.3016 249.343 64.3209 249.286 64.3386C249.232 64.3547 249.17 64.37 249.1 64.3845C249.031 64.3974 248.962 64.4095 248.893 64.4207C248.823 64.4304 248.761 64.4393 248.704 64.4473C248.584 64.465 248.478 64.4932 248.388 64.5318C248.298 64.5705 248.228 64.6228 248.178 64.6888C248.128 64.7532 248.103 64.8337 248.103 64.9303C248.103 65.0703 248.154 65.1774 248.255 65.2514C248.358 65.3239 248.489 65.3601 248.646 65.3601ZM253.212 62.2909V63.0636H250.978V62.2909H253.212ZM251.485 61.4023H252.514V64.8602C252.514 64.9552 252.528 65.0293 252.557 65.0824C252.586 65.1339 252.626 65.1701 252.678 65.1911C252.731 65.212 252.792 65.2224 252.861 65.2224C252.91 65.2224 252.958 65.2184 253.006 65.2104C253.055 65.2007 253.092 65.1935 253.117 65.1886L253.279 65.9541C253.228 65.9702 253.155 65.9887 253.062 66.0097C252.968 66.0322 252.855 66.0459 252.721 66.0507C252.473 66.0604 252.256 66.0274 252.069 65.9517C251.884 65.876 251.74 65.7585 251.637 65.5991C251.534 65.4398 251.483 65.2385 251.485 64.9955V61.4023ZM253.882 66V62.2909H254.91V66H253.882ZM254.398 61.8128C254.245 61.8128 254.114 61.7621 254.005 61.6607C253.897 61.5576 253.843 61.4345 253.843 61.2912C253.843 61.1495 253.897 61.028 254.005 60.9266C254.114 60.8235 254.245 60.772 254.398 60.772C254.551 60.772 254.682 60.8235 254.79 60.9266C254.899 61.028 254.954 61.1495 254.954 61.2912C254.954 61.4345 254.899 61.5576 254.79 61.6607C254.682 61.7621 254.551 61.8128 254.398 61.8128ZM257.41 66.0724C257.035 66.0724 256.711 65.9928 256.437 65.8334C256.165 65.6724 255.955 65.4486 255.807 65.1621C255.659 64.8739 255.585 64.5399 255.585 64.1599C255.585 63.7768 255.659 63.442 255.807 63.1554C255.955 62.8672 256.165 62.6435 256.437 62.4841C256.711 62.3231 257.035 62.2426 257.41 62.2426C257.785 62.2426 258.109 62.3231 258.381 62.4841C258.655 62.6435 258.866 62.8672 259.014 63.1554C259.162 63.442 259.236 63.7768 259.236 64.1599C259.236 64.5399 259.162 64.8739 259.014 65.1621C258.866 65.4486 258.655 65.6724 258.381 65.8334C258.109 65.9928 257.785 66.0724 257.41 66.0724ZM257.415 65.2756C257.586 65.2756 257.728 65.2273 257.842 65.1307C257.957 65.0325 258.043 64.8989 258.101 64.7298C258.16 64.5608 258.19 64.3684 258.19 64.1527C258.19 63.937 258.16 63.7446 258.101 63.5756C258.043 63.4065 257.957 63.2729 257.842 63.1747C257.728 63.0765 257.586 63.0274 257.415 63.0274C257.243 63.0274 257.098 63.0765 256.98 63.1747C256.864 63.2729 256.777 63.4065 256.717 63.5756C256.659 63.7446 256.63 63.937 256.63 64.1527C256.63 64.3684 256.659 64.5608 256.717 64.7298C256.777 64.8989 256.864 65.0325 256.98 65.1307C257.098 65.2273 257.243 65.2756 257.415 65.2756ZM260.933 63.8557V66H259.905V62.2909H260.885V62.9453H260.929C261.011 62.7296 261.148 62.5589 261.341 62.4334C261.535 62.3062 261.769 62.2426 262.044 62.2426C262.302 62.2426 262.526 62.299 262.718 62.4116C262.909 62.5243 263.058 62.6853 263.165 62.8946C263.271 63.1023 263.324 63.3502 263.324 63.6384V66H262.295V63.8219C262.297 63.5949 262.239 63.4178 262.121 63.2906C262.004 63.1618 261.842 63.0974 261.636 63.0974C261.498 63.0974 261.375 63.1272 261.269 63.1868C261.164 63.2464 261.082 63.3333 261.023 63.4476C260.965 63.5603 260.935 63.6963 260.933 63.8557ZM267.464 64.0175C267.366 64.6179 267.194 65.1701 266.95 65.674C266.707 66.1779 266.384 66.6447 265.981 67.0746H264.999C265.152 66.9152 265.3 66.7204 265.445 66.4902C265.59 66.26 265.725 66.0089 265.851 65.7368C265.978 65.4631 266.088 65.1798 266.182 64.8868C266.275 64.5938 266.346 64.304 266.394 64.0175C266.459 63.6359 266.484 63.2512 266.469 62.8632C266.456 62.4736 266.41 62.113 266.329 61.7814C266.25 61.4482 266.144 61.1753 266.01 60.9628H266.993C267.251 61.3926 267.418 61.8595 267.495 62.3634C267.573 62.8672 267.562 63.4186 267.464 64.0175Z" fill="black"/>
<path d="M155.5 12L165.5 19L153.5 23.5L155.5 12Z" fill="#F02D2F"/>
<path d="M189.5 12L199.5 19L187.5 23.5L189.5 12Z" fill="#F02D2F"/>
<path d="M108.292 24.0439C107.763 24.0366 107.352 23.9746 107.059 23.8579C106.775 23.7413 106.56 23.578 106.416 23.368C106.288 23.1842 106.192 22.9705 106.126 22.7269C106.068 22.4835 106.043 22.1451 106.049 21.7118L106.122 16.3693C106.13 15.8147 106.167 15.3558 106.232 14.9927C106.307 14.621 106.411 14.3104 106.544 14.0609C106.686 13.8028 106.867 13.5713 107.087 13.3663C107.473 12.9903 107.932 12.7366 108.462 12.6052C108.993 12.4738 109.549 12.4121 110.129 12.4201C110.77 12.429 111.411 12.5158 112.05 12.6806C112.698 12.8369 113.345 13.0625 113.991 13.3575C114.637 13.6524 115.278 14.0036 115.913 14.4111L115 15.6076C114.458 15.2794 113.916 14.9903 113.374 14.7401C112.84 14.4814 112.305 14.279 111.77 14.1329C111.234 13.9869 110.689 13.91 110.135 13.9024C109.788 13.8976 109.476 13.9323 109.197 14.0065C108.928 14.0721 108.692 14.1945 108.49 14.3737C108.367 14.4847 108.257 14.6262 108.159 14.7982C108.07 14.9617 107.998 15.186 107.942 15.4713C107.895 15.7567 107.868 16.129 107.862 16.5883L107.792 21.6058C107.79 21.7965 107.801 21.957 107.825 22.0873C107.849 22.209 107.891 22.3006 107.951 22.3621C108.045 22.45 108.148 22.5078 108.261 22.5354C108.373 22.5542 108.551 22.5654 108.793 22.5687L108.643 24.0488L108.292 24.0439ZM114.635 24.1314C114.193 24.1253 113.782 24.0763 113.402 23.9844C113.022 23.8924 112.66 23.7444 112.316 23.5404C111.981 23.3364 111.651 23.0631 111.326 22.7206C111.002 22.3695 110.67 21.9358 110.33 21.4198L110.669 20.3974C110.982 20.367 111.277 20.2887 111.557 20.1626C111.836 20.0364 112.063 19.8662 112.24 19.6519C112.416 19.429 112.506 19.1616 112.511 18.8496C112.516 18.4423 112.395 18.1546 112.146 17.9865C111.897 17.8184 111.594 17.7319 111.239 17.727C110.97 17.7232 110.706 17.7499 110.445 17.807C110.184 17.8641 109.949 17.9432 109.74 18.0443L109.278 16.6598C109.6 16.5342 109.939 16.4349 110.296 16.3618C110.652 16.2801 111.06 16.2423 111.519 16.2487C112.057 16.2561 112.532 16.3623 112.945 16.5674C113.359 16.7637 113.684 17.0543 113.921 17.4389C114.159 17.8235 114.273 18.2975 114.266 18.8608C114.26 19.3027 114.167 19.7088 113.989 20.0791C113.811 20.4407 113.559 20.7579 113.235 21.0308C112.91 21.3037 112.526 21.5151 112.082 21.6649C111.638 21.8062 111.143 21.873 110.597 21.8655C110.146 21.8593 109.805 21.7592 109.574 21.5654C109.343 21.3715 109.229 21.1142 109.234 20.7936C109.238 20.4816 109.345 20.2491 109.555 20.096C109.765 19.9342 110.031 19.8555 110.352 19.8599C110.594 19.8633 110.823 19.9184 111.038 20.0254C111.254 20.1324 111.498 20.3264 111.771 20.6076L111.819 20.9073C112.211 21.424 112.57 21.8017 112.896 22.0402C113.23 22.2788 113.545 22.4349 113.838 22.5082C114.141 22.5731 114.435 22.6075 114.721 22.6114L115.007 22.6154L114.869 24.1346L114.635 24.1314ZM114.745 20.8436C114.485 20.84 114.222 20.806 113.954 20.7417C113.686 20.6686 113.453 20.5657 113.256 20.433L113.383 18.7836C113.562 18.9681 113.76 19.1138 113.975 19.2208C114.19 19.3278 114.458 19.3835 114.778 19.3879C115.116 19.3926 115.412 19.3316 115.665 19.2051C115.927 19.0787 116.155 18.8695 116.35 18.5775L116.562 20.1666C116.316 20.4145 116.049 20.5929 115.761 20.7016C115.483 20.8017 115.144 20.8491 114.745 20.8436ZM118.132 24.1796C117.603 24.1723 117.197 24.1104 116.912 23.9938C116.628 23.8685 116.413 23.7095 116.269 23.5168C116.133 23.3329 116.032 23.1192 115.966 22.8756C115.908 22.6235 115.883 22.2807 115.889 21.8474L115.965 16.31L117.705 16.477L117.632 21.7415C117.63 21.9321 117.64 22.0926 117.665 22.223C117.698 22.3448 117.74 22.4363 117.791 22.4977C117.885 22.5857 117.988 22.6435 118.101 22.671C118.213 22.6899 118.39 22.701 118.633 22.7044L118.483 24.1844L118.132 24.1796ZM121.925 24.2319C121.397 24.2246 120.986 24.1626 120.693 24.0459C120.408 23.9293 120.194 23.7703 120.049 23.569C119.922 23.3852 119.825 23.1715 119.759 22.9279C119.702 22.6758 119.676 22.333 119.682 21.8997L119.763 16.0633C119.773 15.292 119.851 14.6994 119.995 14.2853C120.14 13.8713 120.37 13.5234 120.686 13.2417C120.923 13.0283 121.202 12.8675 121.524 12.7593C121.855 12.6425 122.22 12.5868 122.619 12.5923C123.139 12.5995 123.601 12.6926 124.006 12.8715C124.411 13.0418 124.793 13.294 125.153 13.6284C125.521 13.9628 125.897 14.3754 126.28 14.866L125.007 15.7456C124.581 15.1936 124.196 14.7766 123.854 14.4945C123.52 14.2039 123.158 14.0559 122.768 14.0505C122.603 14.0483 122.447 14.0721 122.299 14.1221C122.151 14.172 122.011 14.2698 121.879 14.4153C121.746 14.5695 121.653 14.7762 121.597 15.0355C121.541 15.2947 121.51 15.667 121.504 16.1523L121.426 21.7938C121.423 21.9844 121.434 22.1449 121.458 22.2753C121.483 22.3969 121.525 22.4885 121.584 22.55C121.679 22.638 121.782 22.6958 121.894 22.7233C122.006 22.7422 122.184 22.7533 122.427 22.7567L122.276 24.2367L121.925 24.2319ZM125.836 24.4158C125.195 24.407 124.654 24.3042 124.215 24.1074C123.785 23.9021 123.459 23.6203 123.239 23.2619C123.018 22.9035 122.911 22.4946 122.918 22.0354C122.926 21.4374 123.128 20.9418 123.523 20.5486C123.927 20.1554 124.504 19.7777 125.255 19.4153C125.621 19.2384 125.901 19.0949 126.093 18.9848C126.285 18.8748 126.416 18.7769 126.487 18.6912C126.566 18.6057 126.607 18.5065 126.608 18.3939C126.61 18.2206 126.534 18.0982 126.379 18.0267C126.233 17.9467 126.047 17.9051 125.822 17.902C125.475 17.8972 125.145 17.9273 124.832 17.9924C124.528 18.0488 124.25 18.1273 123.997 18.2279L123.522 16.8432C123.879 16.7268 124.253 16.6322 124.644 16.5596C125.044 16.4785 125.465 16.4409 125.907 16.447C126.461 16.4547 126.92 16.5433 127.281 16.713C127.643 16.874 127.913 17.0987 128.091 17.3872C128.269 17.667 128.356 17.9933 128.351 18.3659C128.346 18.7125 128.277 19.0193 128.143 19.2861C128.009 19.5443 127.781 19.7925 127.457 20.0307C127.141 20.2604 126.7 20.5187 126.133 20.8056C125.775 20.9826 125.491 21.1391 125.281 21.2749C125.071 21.4106 124.922 21.5429 124.834 21.6717C124.745 21.7919 124.7 21.9342 124.698 22.0989C124.693 22.4195 124.803 22.6377 125.027 22.7535C125.259 22.8694 125.536 22.9295 125.856 22.9339C126.342 22.9406 126.789 22.8861 127.198 22.7704C127.607 22.6461 127.956 22.5035 128.244 22.3428L128.914 23.7302C128.443 23.9317 127.968 24.0985 127.49 24.2306C127.02 24.3628 126.469 24.4245 125.836 24.4158ZM139.455 14.7746C139.186 14.7709 138.962 14.6725 138.783 14.4793C138.604 14.2862 138.516 14.0553 138.519 13.7866C138.523 13.5093 138.617 13.2809 138.802 13.1015C138.986 12.9133 139.213 12.8211 139.482 12.8248C139.759 12.8286 139.983 12.9271 140.154 13.1201C140.333 13.3046 140.421 13.5355 140.417 13.8128C140.414 14.0814 140.319 14.3098 140.135 14.498C139.959 14.6862 139.732 14.7785 139.455 14.7746ZM132.068 24.3717C131.539 24.3644 131.128 24.3024 130.835 24.1857C130.551 24.0691 130.336 23.9058 130.192 23.6958C130.065 23.512 129.968 23.2983 129.902 23.0547C129.844 22.8112 129.819 22.4729 129.825 22.0396L129.901 16.5151C129.908 15.9778 129.945 15.5319 130.01 15.1775C130.076 14.8143 130.176 14.5124 130.309 14.2715C130.451 14.0221 130.627 13.7992 130.838 13.6027C131.189 13.2695 131.6 13.0412 132.07 12.9176C132.548 12.7942 133.043 12.736 133.554 12.7431C134.152 12.7513 134.736 12.8417 135.306 13.0143C135.876 13.1781 136.436 13.4112 136.986 13.7135C137.545 14.0159 138.1 14.3702 138.649 14.7765L137.645 15.9198C137.207 15.5931 136.765 15.3053 136.318 15.0564C135.879 14.8077 135.435 14.6109 134.987 14.466C134.538 14.3125 134.08 14.2325 133.612 14.226C133.317 14.222 133.048 14.2529 132.805 14.3189C132.57 14.3763 132.36 14.4905 132.176 14.6613C132.07 14.7552 131.978 14.8839 131.897 15.0475C131.826 15.2025 131.767 15.414 131.72 15.6821C131.673 15.9501 131.646 16.3095 131.64 16.7601L131.568 21.9336C131.566 22.1242 131.577 22.2847 131.601 22.4151C131.625 22.5368 131.667 22.6284 131.727 22.6899C131.821 22.7778 131.924 22.8356 132.037 22.8631C132.149 22.882 132.327 22.8931 132.569 22.8965L132.419 24.3766L132.068 24.3717ZM136.452 23.197C135.724 23.187 135.107 23.0528 134.599 22.7945C134.1 22.5362 133.719 22.1713 133.457 21.6996C133.203 21.2194 133.081 20.6587 133.09 20.0174C133.098 19.4628 133.239 18.9577 133.514 18.5021C133.789 18.0378 134.206 17.6405 134.765 17.3102C135.325 16.9799 136.026 16.7425 136.868 16.5981L137.263 18.1247C136.481 18.2613 135.885 18.4914 135.473 18.8151C135.07 19.1303 134.864 19.5651 134.857 20.1198C134.849 20.6484 135.004 21.0492 135.321 21.3223C135.647 21.5868 136.065 21.7226 136.577 21.7296C136.802 21.7327 137.001 21.7181 137.175 21.6859C137.358 21.6537 137.545 21.5956 137.737 21.5116L138.316 22.8587C138.046 22.9763 137.741 23.0631 137.403 23.1191C137.072 23.1753 136.756 23.2012 136.452 23.197ZM136.355 20.8425L136.011 19.3686L139.439 18.7398L139.522 20.2361L136.355 20.8425ZM141.18 24.4973C140.651 24.49 140.24 24.428 139.947 24.3113C139.663 24.1947 139.448 24.0358 139.304 23.8344C139.176 23.6506 139.08 23.4369 139.014 23.1933C138.956 22.9412 138.931 22.5985 138.937 22.1652L139.013 16.6277L140.753 16.7947L140.68 22.0592C140.678 22.2499 140.689 22.4104 140.713 22.5407C140.737 22.6624 140.779 22.754 140.839 22.8155C140.933 22.9034 141.036 22.9612 141.149 22.9888C141.261 23.0076 141.439 23.0188 141.681 23.0221L141.531 24.5022L141.18 24.4973ZM145.08 24.6811C144.491 24.673 143.928 24.5916 143.393 24.4368C142.867 24.2822 142.388 24.0676 141.959 23.793L142.795 22.5434C143.148 22.739 143.497 22.8955 143.842 23.0129C144.187 23.1303 144.559 23.1918 144.957 23.1973C145.382 23.2031 145.717 23.1384 145.961 23.0031C146.206 22.8678 146.33 22.6658 146.334 22.3972C146.335 22.2585 146.298 22.1193 146.222 21.9796C146.146 21.8399 145.997 21.6948 145.773 21.5444C145.559 21.3941 145.231 21.2335 144.792 21.0628L144.472 20.6554C144.206 20.487 143.953 20.3058 143.713 20.1118C143.473 19.9092 143.277 19.6854 143.124 19.4407C142.98 19.196 142.91 18.922 142.914 18.6187C142.922 18.0294 143.185 17.565 143.701 17.2254C144.217 16.8858 144.899 16.7219 145.749 16.7336C145.974 16.7367 146.216 16.753 146.476 16.7826C146.736 16.8035 146.995 16.8504 147.254 16.9233L146.936 18.3361C146.694 18.2808 146.486 18.2432 146.313 18.2235C146.149 18.2039 145.98 18.1929 145.807 18.1905C145.382 18.1847 145.086 18.2456 144.92 18.3733C144.762 18.4925 144.682 18.6387 144.68 18.812C144.678 18.9507 144.728 19.0814 144.83 19.2042C144.942 19.3184 145.096 19.4332 145.294 19.5486C145.5 19.6641 145.741 19.7931 146.016 19.9356L146.13 20.1972C146.517 20.3759 146.861 20.5713 147.162 20.7834C147.462 20.9956 147.697 21.2459 147.867 21.5342C148.036 21.8139 148.118 22.1618 148.112 22.5777C148.107 22.933 148.007 23.274 147.812 23.6007C147.626 23.9275 147.31 24.1918 146.865 24.3937C146.429 24.5957 145.834 24.6915 145.08 24.6811ZM142.737 22.0746L142.171 20.6756L144.6 19.903L148.035 18.7153L148.627 20.1276L145.989 20.9623L142.737 22.0746Z" fill="#BC6165"/>
<path d="M207.821 17.37V24H206.001V17.37H205V15.914H205.949C205.754 15.55 205.598 15.147 205.598 14.601C205.598 13.158 206.963 12.352 209.277 12.352C212.982 12.352 215.907 14.016 217.415 16.005H215.543C214.061 14.627 212.033 13.821 209.628 13.821C208.172 13.821 207.418 14.263 207.418 15.043C207.418 15.381 207.535 15.68 207.704 15.914H209.017V17.37H207.821ZM212.422 24.299C210.992 22.882 210.069 21.751 209.64 20.971C209.354 20.49 209.25 20.113 209.25 19.775C209.25 19.229 209.575 18.852 210.225 18.852C210.641 18.852 210.979 19.034 211.291 19.307C211.538 19.021 211.642 18.67 211.642 18.228C211.642 17.916 211.59 17.617 211.486 17.37H208.821V15.914H218.61V17.37H217.414V24H215.594V21.062C215.243 21.127 214.84 21.166 214.424 21.166C213.709 21.166 212.929 21.023 212.188 20.633C211.993 20.763 211.772 20.893 211.525 20.997C212.123 21.699 212.929 22.453 213.761 23.207L212.422 24.299ZM214.424 19.697C214.827 19.697 215.217 19.658 215.594 19.567V17.37H213.293C213.397 17.682 213.449 18.007 213.449 18.423C213.449 18.865 213.345 19.242 213.176 19.554C213.579 19.658 213.956 19.697 214.424 19.697ZM221.24 17.37V24H219.42V17.37H218.419V15.914H219.381C219.173 15.537 219.017 15.108 219.017 14.588C219.017 13.184 220.096 12.352 221.916 12.352C224.529 12.352 226.544 13.912 227.714 16.005H226.011C225.192 14.744 223.853 13.808 222.332 13.808C221.344 13.808 220.837 14.263 220.837 15.004C220.837 15.342 220.954 15.641 221.123 15.914H222.436V17.37H221.24ZM229.416 17.37H227.921V19.788H226.517C225.178 19.788 224.515 20.217 224.515 21.153C224.515 21.998 225.217 22.466 226.179 22.466C226.959 22.466 227.596 22.219 228.376 21.699L229.039 23.038C228.285 23.675 227.349 24 226.114 24C224.099 24 222.695 22.934 222.695 21.088C222.695 19.255 223.982 18.41 226.127 18.41V17.37H222.24V15.914H229.416V17.37ZM232.056 17.37V24H230.236V17.37H229.235V15.914H230.184C229.989 15.55 229.833 15.147 229.833 14.601C229.833 13.158 231.198 12.352 233.512 12.352C237.217 12.352 240.142 14.016 241.65 16.005H239.778C238.296 14.627 236.268 13.821 233.863 13.821C232.407 13.821 231.653 14.263 231.653 15.043C231.653 15.381 231.77 15.68 231.939 15.914H233.252V17.37H232.056ZM240.441 13.483C240.441 12.911 240.883 12.469 241.455 12.469C242.027 12.469 242.469 12.911 242.469 13.483C242.469 14.055 242.027 14.497 241.455 14.497C240.883 14.497 240.441 14.055 240.441 13.483ZM233.057 17.37V15.914H242.833V17.37H241.637V24H239.83V19.905H239.817C239.102 19.905 238.647 20.451 238.478 21.725L236.749 21.322C236.801 20.88 236.905 20.49 237.048 20.152C236.84 20.022 236.593 19.931 236.307 19.931C235.683 19.931 235.332 20.321 235.332 20.906C235.332 21.66 235.891 22.219 237.399 22.973L236.437 24.299C234.617 23.441 233.512 22.323 233.512 20.789C233.512 19.229 234.539 18.462 235.995 18.462C236.749 18.462 237.334 18.696 237.828 19.099C238.309 18.696 238.946 18.488 239.713 18.488C239.752 18.488 239.791 18.488 239.83 18.488V17.37H233.057ZM253.639 17.37H249.401V19.19C249.778 18.943 250.22 18.8 250.805 18.8C252.157 18.8 253.015 19.645 253.015 21.036C253.015 21.881 252.729 22.7 252.001 23.623L250.428 22.752C250.896 22.206 251.208 21.673 251.208 21.062C251.208 20.516 250.935 20.243 250.467 20.243C250.038 20.243 249.622 20.516 249.401 20.88V24H247.581V22.349C247.087 22.661 246.476 22.817 245.813 22.817C244.214 22.817 243.109 21.985 243.109 20.464C243.109 18.995 244.136 18.163 245.917 18.163C246.359 18.163 246.801 18.202 247.191 18.28L247.035 19.723C246.775 19.658 246.463 19.619 246.138 19.619C245.358 19.619 244.929 19.944 244.929 20.516C244.929 21.075 245.345 21.361 245.956 21.361C246.632 21.361 247.23 20.971 247.581 20.516V17.37H242.654V15.914H253.639V17.37Z" fill="#BC6165"/>
<path d="M150.5 29L165.5 24.5L157.5 55H144.5L150.5 29Z" fill="#3D3D95"/>
<path d="M87 28.5H102.5L101.5 34H96.5H94.5C88.5 33.5 88.6674 35 88.5 35C88.3326 35 87.9252 36.8005 88.5 38C89.707 38.6064 90.1837 38.7125 91.5 39C95 39.5 95.3256 38.8837 98.5 41C100 42 100.289 43.6853 100 47C99.1077 50.7584 95.6705 52.1148 92.5 54C90 54.5 87.8791 54.5781 84.5012 54.5H76.5V49H82C85 49.5 85.164 49.4043 87.5 49C89.5313 48.2502 90.152 48.5702 90.5 47C90.1902 45.9159 89.5955 45.5938 87.5 45C87.5 45 83.5 44.5 80.5 43C77.5 41.5 76.5468 39.6293 77 36C78.4154 31.3919 80.362 29.6078 87 28.5Z" fill="#393E9A"/>
<path d="M123 29H146.5L144.5 36H122L123 29Z" fill="#3B3F95"/>
<path d="M139.25 32.0012L135.25 46.5012L141.256 46.9998C140.364 53.2909 138.557 55.1363 132.75 55.5012C127.38 55.7748 124.5 53.5 123 51C123.913 43.9276 125.105 40.1794 127.25 33.5012L139.25 32.0012Z" fill="#393F95"/>
</svg>
