<svg width="100" height="100" viewBox="0 0 100 100" fill="none" xmlns="http://www.w3.org/2000/svg">
<path fill-rule="evenodd" clip-rule="evenodd" d="M13.4168 65.787H13.9736L13.4522 69.4125C13.3727 69.9456 13.3904 70.3597 13.4963 70.626C13.6025 70.8923 13.7966 71.0255 14.0882 71.0255C14.3708 71.0255 14.6093 70.8923 14.795 70.626C14.9804 70.3592 15.1043 69.9451 15.1838 69.4125L15.7049 65.787H16.2704L15.7403 69.5014C15.6254 70.3004 15.4223 70.9074 15.122 71.3069C14.8304 71.7063 14.4416 71.9139 13.9646 71.9139C13.4876 71.9139 13.1606 71.7214 12.9839 71.3214C12.8072 70.9219 12.7718 70.3154 12.8867 69.5165L13.4168 65.7875V65.787ZM80.4688 71.7506L81.3166 65.787H83.2513L83.1364 66.6156H81.7672L81.5554 68.11H82.9246L82.8007 68.9537H81.4315L81.1576 70.8767H82.5271L82.4035 71.7501H80.4688V71.7506ZM80.4157 67.2372C80.2918 67.001 80.1418 66.8231 79.9828 66.7191C79.8235 66.601 79.6471 66.5417 79.4437 66.5417C79.0639 66.5417 78.7282 66.7487 78.4279 67.1633C78.1276 67.5778 77.9332 68.1256 77.836 68.7909C77.7475 69.4275 77.7829 69.9602 77.9599 70.3893C78.1276 70.8034 78.3925 71.0109 78.7459 71.0109C78.949 71.0109 79.1524 70.9516 79.3552 70.8184C79.5586 70.7003 79.762 70.5074 79.9738 70.2561L79.8148 71.3511C79.6381 71.543 79.4527 71.6767 79.258 71.7656C79.0636 71.8541 78.8692 71.8988 78.6574 71.8988C78.3925 71.8988 78.1537 71.8244 77.9506 71.6762C77.7472 71.5285 77.5798 71.3064 77.4469 71.0109C77.3146 70.7295 77.2351 70.3893 77.1997 70.0049C77.1646 69.62 77.1733 69.2059 77.2441 68.7617C77.3059 68.318 77.4118 67.9175 77.5534 67.5331C77.6947 67.1482 77.8801 66.808 78.0922 66.5271C78.304 66.2312 78.5338 66.0096 78.7813 65.8613C79.0285 65.7136 79.2757 65.6397 79.5322 65.6397C79.7353 65.6397 79.9207 65.6839 80.0977 65.7875C80.2654 65.8915 80.4244 66.0387 80.5657 66.2462L80.4157 67.2372ZM74.9206 69.3979H75.8833L75.7243 68.0361C75.7156 67.9477 75.7066 67.8437 75.7066 67.7402C75.6976 67.6221 75.6976 67.5035 75.6976 67.3703C75.6622 67.5035 75.6271 67.6216 75.5827 67.7402C75.5473 67.8582 75.5122 67.9623 75.4768 68.0512L74.9203 69.3979H74.9206ZM76.1485 71.7506L75.9718 70.2119H74.5936L73.975 71.7506H73.3834L75.9451 65.5508L76.7401 71.7506H76.1485ZM71.4841 71.7506L72.3322 65.787H74.2669L74.152 66.6156H72.7825L72.5707 68.0954H73.9396L73.816 68.9391H72.4468L72.0493 71.7355H71.4838V71.7506H71.4841ZM69.8143 68.3175H69.9202C70.2205 68.3175 70.4239 68.2582 70.5388 68.1396C70.6534 68.021 70.7332 67.814 70.7773 67.503C70.8211 67.1774 70.8037 66.9407 70.7152 66.8075C70.6273 66.6744 70.4413 66.6 70.1587 66.6H70.0525L69.814 68.317L69.8143 68.3175ZM69.673 69.0723L69.2929 71.7355H68.7628L69.6112 65.7724H70.3975C70.6273 65.7724 70.8037 65.802 70.9186 65.8468C71.0419 65.8915 71.1394 65.9799 71.2099 66.098C71.2984 66.2462 71.3512 66.4236 71.3776 66.6603C71.4043 66.8829 71.3953 67.1341 71.3599 67.415C71.2894 67.8889 71.1742 68.2738 70.9978 68.5396C70.8211 68.8059 70.6 68.9688 70.3351 69.028L71.1391 71.735H70.5028L69.7342 69.0718H69.6724L69.673 69.0723ZM66.1834 71.7506L67.0318 65.787H68.9752L68.8606 66.6156H67.4911L67.2793 68.11H68.6485L68.5252 68.9537H67.1557L66.8821 70.8767H68.2513L68.1274 71.7501H66.1837L66.1834 71.7506ZM65.5741 66.601L64.8409 71.7355H64.2757L65.0089 66.601H64.09L64.2049 65.7724H66.6079L66.4933 66.601H65.5744H65.5741ZM59.8231 71.7506L60.7066 65.5508L62.3851 69.1909C62.4295 69.2944 62.4733 69.3984 62.5174 69.5165C62.5615 69.6346 62.6059 69.7682 62.6587 69.9155L63.2509 65.787H63.772L62.8885 71.9727L61.1746 68.2582C61.1305 68.1547 61.0861 68.0512 61.0423 67.9472C60.9982 67.8291 60.9628 67.7251 60.9361 67.5919L60.3445 71.735H59.8234V71.7501L59.8231 71.7506ZM58.4449 71.7506L59.293 65.787H59.8582L59.0101 71.7506H58.4449ZM54.2839 70.5521L54.7873 70.1968C54.796 70.4632 54.8401 70.6702 54.9376 70.8034C55.0348 70.9365 55.1671 71.0109 55.3438 71.0109C55.5115 71.0109 55.6531 70.9365 55.7767 70.7742C55.9003 70.6114 55.9801 70.4044 56.0152 70.1381C56.0683 69.7828 55.9447 69.4717 55.6444 69.2059C55.6003 69.1612 55.5739 69.1316 55.5469 69.117C55.2112 68.7914 54.9994 68.5105 54.9109 68.2442C54.8227 67.9778 54.8047 67.6668 54.8581 67.2975C54.9286 66.809 55.0789 66.4241 55.3171 66.1136C55.5559 65.8176 55.8208 65.6548 56.1391 65.6548C56.3953 65.6548 56.5981 65.7437 56.7484 65.906C56.8987 66.0694 56.9782 66.3206 57.0046 66.6316L56.5102 67.0166C56.4658 66.8241 56.4127 66.6909 56.3422 66.602C56.2717 66.5136 56.1832 66.4688 56.077 66.4688C55.9267 66.4688 55.7944 66.5427 55.6885 66.6759C55.5823 66.809 55.5118 66.9869 55.4764 67.2236C55.4236 67.5789 55.5739 67.9185 55.918 68.2296C55.9447 68.2592 55.9621 68.2743 55.9801 68.2884C56.2804 68.5547 56.4835 68.8215 56.5717 69.0878C56.6602 69.3537 56.6779 69.6647 56.6251 70.0642C56.5453 70.6265 56.3776 71.0702 56.1211 71.4109C55.8652 71.736 55.5646 71.9144 55.2112 71.9144C54.9199 71.9144 54.6901 71.7953 54.5311 71.5586C54.3544 71.3219 54.2749 70.9812 54.2839 70.5526V70.5521ZM53.692 66.601L52.9588 71.7355H52.3936L53.1268 66.601H52.2082L52.3225 65.7724H54.7255L54.6106 66.601H53.692ZM47.941 71.7506L48.8242 65.5508L50.503 69.1909C50.5471 69.2944 50.5915 69.3984 50.6356 69.5165C50.6794 69.6346 50.7238 69.7682 50.7769 69.9155L51.3688 65.787H51.8899L51.0067 71.9727L49.2928 68.2582C49.2484 68.1547 49.2046 68.0512 49.1602 67.9472C49.1161 67.8291 49.0807 67.7251 49.0543 67.5919L48.4624 71.735H47.9413V71.7501L47.941 71.7506ZM45.3613 71.7506L46.2094 65.787H48.1441L48.0292 66.6156H46.66L46.4479 68.11H47.8171L47.6935 68.9537H46.3243L46.0504 70.8767H47.4199L47.296 71.7501H45.3613V71.7506ZM44.425 68.8059C44.425 68.7617 44.4337 68.6281 44.4514 68.421C44.4604 68.2437 44.4691 68.1105 44.4781 67.9919C44.4427 68.1256 44.4073 68.2582 44.3632 68.406C44.3191 68.5396 44.266 68.6874 44.2042 68.8205L42.8437 72.0018L42.4021 68.7617C42.3844 68.6286 42.3667 68.4954 42.3577 68.3768C42.349 68.2587 42.34 68.1256 42.34 68.007C42.3223 68.1256 42.2959 68.2582 42.2695 68.406C42.2428 68.5396 42.2077 68.6874 42.1633 68.8356L41.3683 71.7656H40.8472L42.5521 65.5508L43.0381 69.3089C43.0468 69.3682 43.0558 69.4717 43.0648 69.6049C43.0735 69.7386 43.0912 69.916 43.1089 70.123C43.1707 69.9456 43.2502 69.7386 43.3564 69.4717C43.3828 69.3984 43.4092 69.3537 43.4182 69.3089L44.9554 65.5508L44.9023 71.7656H44.3812L44.4256 68.8059H44.425ZM39.0451 71.7506L39.4339 69.028L38.7272 65.802H39.3187L39.7603 67.8296C39.7693 67.8884 39.778 67.9477 39.7957 68.0361C39.8134 68.1256 39.8224 68.214 39.8398 68.3024C39.8752 68.214 39.9106 68.1251 39.946 68.0361C39.9814 67.9477 40.0168 67.8733 40.0519 67.7994L41.0857 65.802H41.6509L39.9991 69.013L39.6103 71.735H39.0448V71.7501L39.0451 71.7506ZM36.4214 69.3979H37.3841L37.2251 68.0361C37.2161 67.9477 37.2074 67.8437 37.2074 67.7402C37.1984 67.6221 37.1984 67.5035 37.1984 67.3703C37.163 67.5035 37.1276 67.6216 37.0835 67.7402C37.0481 67.8582 37.013 67.9623 36.9773 68.0512L36.4208 69.3979H36.4214ZM37.6403 71.7506L37.4636 70.2119H36.0854L35.4671 71.7506H34.8752L37.4372 65.5508L38.2322 71.7506H37.6403ZM34.0979 68.2733H34.2392C34.5485 68.2733 34.7693 68.214 34.8929 68.0954C35.0165 67.9773 35.096 67.7703 35.1404 67.4738C35.1842 67.1633 35.1578 66.9266 35.0696 66.8085C34.9724 66.6754 34.778 66.6161 34.4867 66.6161H34.3454L34.0979 68.2738V68.2733ZM33.9476 69.0723L33.5678 71.7506H33.0377L33.8858 65.787H34.7426C34.9988 65.787 35.1755 65.8166 35.2904 65.8608C35.4053 65.905 35.4938 65.9794 35.5643 66.0975C35.6525 66.2307 35.7143 66.4231 35.741 66.6598C35.7674 66.897 35.7587 67.1482 35.7233 67.4291C35.6792 67.7105 35.6174 67.9768 35.5202 68.2135C35.423 68.4502 35.3081 68.6426 35.1845 68.7758C35.0786 68.8793 34.9637 68.9677 34.8401 69.0125C34.7165 69.0567 34.5221 69.0868 34.2746 69.0868H33.9479V69.0718L33.9476 69.0723ZM28.6736 70.8627H29.1506C29.4068 70.8627 29.6099 70.833 29.7515 70.7742C29.8928 70.7154 30.0164 70.6114 30.1313 70.4782C30.2903 70.2858 30.4229 70.0491 30.5288 69.7531C30.635 69.4717 30.7145 69.1316 30.7673 68.7472C30.8201 68.3622 30.8378 68.0366 30.8114 67.7562C30.785 67.4743 30.7232 67.2231 30.617 67.0306C30.5375 66.8829 30.4403 66.794 30.308 66.7347C30.1754 66.6754 29.9723 66.6462 29.6807 66.6462H29.2745L28.6736 70.8632V70.8627ZM27.9845 71.7506L28.8329 65.787H29.5925C30.0872 65.787 30.4319 65.8312 30.617 65.9201C30.8027 66.0091 30.9614 66.1422 31.0853 66.3492C31.2443 66.6156 31.3505 66.9563 31.3946 67.3552C31.4387 67.7698 31.421 68.2431 31.3505 68.7612C31.2707 69.2939 31.1561 69.7521 30.9971 70.1662C30.8381 70.5808 30.635 70.9064 30.3965 71.1727C30.2198 71.3802 30.0254 71.5134 29.8133 71.6018C29.6102 71.6908 29.3009 71.735 28.8944 71.735H27.9845V71.7501V71.7506ZM25.3961 71.7506L26.2442 65.787H28.1789L28.064 66.6156H26.6945L26.4824 68.11H27.8519L27.7283 68.9537H26.3588L26.0849 70.8767H27.4544L27.3308 71.7501H25.3961V71.7506ZM24.0266 71.7506L24.8747 65.787H25.4399L24.5918 71.7506H24.0263H24.0266ZM21.4646 71.7506L22.3127 65.787H24.2474L24.1325 66.6156H22.7633L22.5512 68.0954H23.9204L23.7968 68.9391H22.4273L22.0298 71.7355H21.4643V71.7506H21.4646ZM20.0951 71.7506L20.9432 65.787H21.5084L20.6603 71.7506H20.0948H20.0951ZM16.1906 71.7506L17.0738 65.5508L18.7523 69.1909C18.7964 69.2944 18.8405 69.3984 18.8849 69.5165C18.929 69.6346 18.9731 69.7682 19.0262 69.9155L19.6181 65.787H20.1392L19.256 71.9727L17.5421 68.2582C17.498 68.1547 17.4539 68.0512 17.4095 67.9472C17.3654 67.8291 17.33 67.7251 17.3036 67.5919L16.7117 71.735H16.1906V71.7501V71.7506Z" fill="#3A3734"/>
<path fill-rule="evenodd" clip-rule="evenodd" d="M70.1876 60.5944H66.3095L71.6984 27.9961H75.5764L70.1876 60.5944ZM37.9604 58.5523C37.7483 59.8397 37.0415 60.7422 36.2465 60.7422H16.2549C15.7071 60.7422 15.3009 60.4311 15.0357 59.81C14.7708 59.188 14.709 58.4186 14.868 57.5016L19.7445 28.085H23.6229L19.2675 54.3645H34.7804L39.1355 28.085H43.0139L37.9604 58.5523ZM68.1734 29.0172C67.9085 28.3956 67.493 28.085 66.9278 28.085H45.6197L44.5685 34.4773H63.9509L62.8202 41.2991H47.3162V41.2841H43.4381L40.2224 60.7427H44.1005L46.256 47.6914H63.686C64.2338 47.6914 64.7462 47.3803 65.2232 46.7593C65.7002 46.1377 66.0185 45.3683 66.1685 44.4508L68.324 31.4C68.4917 30.4236 68.4386 29.6387 68.1734 29.0172Z" fill="#615B5A"/>
<path fill-rule="evenodd" clip-rule="evenodd" d="M78.8297 28.0547L83.7325 44.3908L73.4141 60.7269L78.8297 28.0547Z" fill="#E97208"/>
<path fill-rule="evenodd" clip-rule="evenodd" d="M82.2735 28.0547L87.1767 44.3908L76.8672 60.7269L78.0933 53.3166L83.7315 44.3908L81.0492 35.4539L82.2735 28.0547Z" fill="#0E8635"/>
</svg>
